# xmcd
#
# Track frame offsets: 
#        150
#        14699
#        29064
#        40235
#        54639
#        68705
#        83013
#        97537
#        113804
#        128026
#        142306
#        156134
#        169242
#        183278
#        196919
#        210682
#        223532
#        236177
#        248361
#        261760
#
# Disc length: 3680 seconds
#
# Revision: 2
# Processed by: cddbd v1.5.2PL0 Copyright (c) Steve Scherf et al.
# Submitted via: ExactAudioCopy v1.1
#
DISCID=1a0e5e14
DTITLE=장윤정 (Jang Yoon Jeong) - 베스트 CD1 (Best CD1)
DYEAR=2013
DGENRE=Trot
TTITLE0=블란서 영화처럼 (Like the French Movie)
TTITLE1=왔구나 왔어 (I've Made It)
TTITLE2=짠짜라 (Really)
TTITLE3=사랑아 (My Love)
TTITLE4=당신이 좋아 (You Were Good)
TTITLE5=올래 (Come On)
TTITLE6=장윤정 트위스트 (Jang Yoon Jeong Twist)
TTITLE7=불나비 (Fire Butterfly)
TTITLE8=어머나 (Oh My Goodness!)
TTITLE9=내사랑 로미오 (Romeo in Love)
TTITLE10=와락 부비부비 (Romantic Hug)
TTITLE11=어부바 (Piggyback)
TTITLE12=천생연분 (Meant for Each Other)
TTITLE13=남자는 여자를 귀찮게해 (The Man's Woman)
TTITLE14=비에젖은 터미널 (Terminal Wet in the Rain)
TTITLE15=당신이 원하신다면 (If You Want)
TTITLE16=얄미운사랑 (Hateful Person)
TTITLE17=카추샤의 노래 (Cachucha's Song)
TTITLE18=제비처럼 (I Like You A lot)
TTITLE19=러브레터 (Love Letter)
EXTD=
EXTT0=
EXTT1=
EXTT2=
EXTT3=
EXTT4=
EXTT5=
EXTT6=
EXTT7=
EXTT8=
EXTT9=
EXTT10=
EXTT11=
EXTT12=
EXTT13=
EXTT14=
EXTT15=
EXTT16=
EXTT17=
EXTT18=
EXTT19=
PLAYORDER=
